<?xml version="1.0" encoding="UTF-8"?>
<!DOCTYPE svg PUBLIC "-//W3C//DTD SVG 1.1//EN" "http://www.w3.org/Graphics/SVG/1.1/DTD/svg11.dtd">
<!-- Creator: CorelDRAW -->
<svg xmlns="http://www.w3.org/2000/svg" xml:space="preserve" width="336.88mm" height="90.5123mm" version="1.1" style="shape-rendering:geometricPrecision; text-rendering:geometricPrecision; image-rendering:optimizeQuality; fill-rule:evenodd; clip-rule:evenodd"
viewBox="0 0 13834.93 3717.14"
 xmlns:xlink="http://www.w3.org/1999/xlink"
 xmlns:xodm="http://www.corel.com/coreldraw/odm/2003">
 <defs>
  <style type="text/css">
   <![CDATA[
    .fil2 {fill:none}
    .fil1 {fill:#FEFEFE}
    .fil0 {fill:white;fill-rule:nonzero}
   ]]>
  </style>
 </defs>
 <g id="Camada_x0020_1">
  <metadata id="CorelCorpID_0Corel-Layer"/>
  <g id="_1924706930544">
   <path class="fil0" d="M4106.17 2765.04c0,65.05 31.11,96.16 96.16,96.16l1153.94 0c62.22,0 93.33,-31.11 93.33,-96.16l0 -316.77c0,-65.05 -31.11,-96.16 -93.33,-96.16l-602.42 0 625.05 -950.3c28.28,-42.42 48.08,-90.51 48.08,-149.9l0 -296.97c0,-65.05 -31.11,-96.16 -96.16,-96.16l-1097.37 0c-65.06,0 -96.17,31.11 -96.17,96.16l0 316.77c0,65.05 31.11,96.16 96.17,96.16l548.69 0 -627.89 950.3c-28.28,42.42 -48.08,90.51 -48.08,149.9l0 296.97zm2339 -274.34c-192.32,0 -277.17,-53.74 -299.8,-212.12l707.07 0c67.88,0 98.99,-25.46 98.99,-96.16l0 -164.04c0,-477.98 -203.63,-738.18 -647.68,-738.18 -446.87,0 -684.45,246.06 -684.45,797.57 0,576.97 254.55,811.71 774.95,811.71 178.18,0 328.08,-33.94 432.73,-79.19 50.91,-25.45 76.36,-50.91 67.88,-113.13l-28.28 -200.81c-8.48,-59.39 -50.91,-82.02 -110.3,-62.22 -79.2,28.28 -192.33,56.57 -311.11,56.57zm-135.76 -825.85c110.3,0 158.38,84.85 158.38,268.68l0 31.11 -336.57 0c14.14,-226.26 59.4,-299.8 178.19,-299.8zm-231.92 -554.34c-14.14,42.42 2.83,70.71 53.74,70.71l214.95 0c53.74,0 82.02,-11.31 115.96,-48.08l206.46 -214.95c31.11,-33.94 22.63,-93.33 -33.94,-93.33l-384.65 0c-53.74,0 -76.37,22.62 -90.51,62.22l-82.02 223.43zm1168.09 1750.7l0 -2025.04 764.58 0c134.35,0 237.11,6.6 308.29,19.33 99.46,16.5 182.89,48.08 250.3,94.28 67.41,46.67 121.62,111.72 162.63,195.15 41.01,83.43 61.28,175.35 61.28,275.75 0,171.58 -54.68,317.24 -164.51,436.03 -109.36,119.26 -307.81,178.65 -594.42,178.65l-519.46 0 0 825.85 -268.68 0zm268.68 -1063.43l523.23 0c173.47,0 296.03,-32.06 369.09,-96.63 72.6,-64.58 108.89,-155.08 108.89,-272.46 0,-84.38 -21.21,-156.97 -64.11,-217.31 -42.9,-60.34 -99.46,-100.4 -169.23,-119.73 -45.25,-11.79 -128.69,-17.91 -249.83,-17.91l-518.05 0 0 724.04zm1493.34 329.49c0,-271.04 75.42,-471.85 226.74,-602.42 125.86,-108.42 280,-162.62 461.48,-162.62 201.28,0 366.26,65.99 494.48,197.98 127.75,131.52 191.85,313.94 191.85,546.33 0,188.55 -28.28,336.56 -84.85,444.51 -56.57,107.94 -139.06,191.85 -247.48,251.71 -107.95,59.86 -226.26,89.56 -354,89.56 -205.52,0 -371.45,-65.52 -498.25,-197.04 -126.81,-131.51 -189.97,-321.01 -189.97,-568.01zm254.55 0.47c0,187.61 41.01,328.08 123.03,420.94 82.49,93.33 185.72,140 310.64,140 123.5,0 226.26,-46.67 308.75,-140.47 82.02,-93.8 123.04,-236.63 123.04,-428.48 0,-181.01 -41.48,-318.18 -123.98,-411.04 -82.49,-93.33 -185.25,-140 -307.81,-140 -124.92,0 -228.15,46.2 -310.64,139.06 -82.02,92.86 -123.03,232.86 -123.03,420zm1411.79 -1008.75l0 -282.83 248.89 0 0 282.83 -248.89 0zm0 1742.21l0 -1467.87 248.89 0 0 1467.87 -248.89 0zm628.35 0l0 -1467.87 223.43 0 0 208.35c107.48,-159.8 263.03,-239.46 466.2,-239.46 88.62,0 169.7,16.02 243.7,47.61 74.01,31.59 129.63,73.54 166.4,124.92 36.76,51.38 62.69,112.66 77.31,183.37 8.95,46.19 13.67,126.8 13.67,241.82l0 901.27 -248.89 0 0 -891.85c0,-101.35 -9.43,-177.24 -28.75,-227.21 -19.33,-49.96 -53.74,-90.03 -102.76,-120.2 -49.02,-29.7 -107.01,-44.78 -173,-44.78 -105.59,0 -196.56,33.47 -273.4,100.87 -76.83,66.94 -115.02,194.68 -115.02,382.29l0 800.87 -248.89 0zm2113.2 -222.02l33.94 219.66c-69.76,14.61 -132.46,22.16 -187.13,22.16 -90.03,0 -159.8,-14.14 -209.77,-42.9 -49.5,-28.76 -84.38,-65.99 -104.65,-112.66 -20.27,-46.67 -30.17,-144.71 -30.17,-294.14l0 -845.65 -183.84 0 0 -192.32 183.84 0 0 -362.96 248.89 -149.43 0 512.39 248.89 0 0 192.32 -248.89 0 0 859.8c0,71.18 4.24,116.9 13.2,137.17 8.48,20.27 22.63,36.3 42.42,48.55 19.8,11.79 48.08,17.91 84.85,17.91 27.34,0 63.63,-3.3 108.41,-9.9z"/>
   <path class="fil1" d="M728.97 267.17c-174.39,25.79 -323.22,163.18 -340.57,342.09 -6.44,66.38 -0.1,569.58 -0.07,683.07l0.01 1705.33c-0.02,120.71 4.15,194.62 62.74,280.31 44.35,64.85 99.28,114.29 188.56,149.74 92.98,36.92 210.58,26.18 316.02,26.28l1022.25 0.1c98.66,0.05 246.6,8.46 338.74,-3.52 78.56,-10.21 148.78,-41.49 205.87,-90.19l60.84 -67.56c111.42,-157.09 76.22,-306.12 76.56,-519.67l0 -2049.26c0.1,-120.9 -6.6,-194.48 -63.56,-279.68 -131.79,-197.16 -306.66,-180.97 -503.82,-180.98l-1022.25 -0.06c-94.94,0.01 -253.48,-9.01 -341.34,3.99zm30.24 919.76l273.19 0c15.77,0 28.66,12.9 28.66,28.66l0 76.92c0,15.76 -12.9,28.66 -28.66,28.66l-273.19 0c-15.76,0 -28.66,-12.9 -28.66,-28.66l0 -76.92c0,-15.77 12.9,-28.66 28.66,-28.66zm0 -227.8l603.7 0c15.77,0 28.66,12.9 28.66,28.66l0 76.92c0,15.76 -12.9,28.66 -28.66,28.66l-603.7 0c-15.76,0 -28.66,-12.9 -28.66,-28.66l0 -76.92c0,-15.77 12.9,-28.66 28.66,-28.66zm0 -258.3l1264.72 0c15.76,0 28.66,12.9 28.66,28.66l0 76.92c0,15.77 -12.9,28.66 -28.66,28.66l-1264.72 0c-15.76,0 -28.66,-12.9 -28.66,-28.66l0 -76.92c0,-15.76 12.9,-28.66 28.66,-28.66zm1995.52 1757.84c102.24,8.33 141.45,-12.38 198.75,-71.16 52.71,-54.07 46.29,-137.93 46.42,-225.79l0.28 -1079.57c-0.04,-108.66 13.61,-221.7 -120.35,-285.25 -38.05,-18.05 -80.03,-14.54 -124.54,-16.48l-0.57 1678.24zm-654.76 67.41c-74.89,21.31 -56.34,116.42 -56.31,199.31 0.02,84.39 0,168.78 0.01,253.17 0.01,78.52 -16.98,183.86 39.48,215.39 30.94,17.27 191.95,19.43 232.16,8.22 76.1,-21.2 58.81,-116.65 58.86,-194.95l0.14 -377.47c-0.65,-120.28 -71.37,-106.09 -148,-106.12 -27.89,-0.01 -105.33,-3.52 -126.34,2.46zm-1352.63 -795.5c-47.08,18.83 -50.44,43.03 -50.17,101.52 0.19,40.25 -9.2,110.28 12.16,140.77 27.1,38.69 60.31,32.91 117.35,32.88 139.73,-0.07 197.68,19.91 197.19,-106.75 -0.54,-139.36 16.64,-174.34 -130.31,-174.07 -35.94,0.07 -117.86,-5.7 -146.22,5.64zm1351.73 -0.43c-50.25,15.77 -51.45,41.92 -51.33,101.97 0.08,41.61 -8.83,111.29 12.16,142.12 23.17,34.06 67.33,31.91 118.65,31.71 37.08,-0.14 118.66,5.7 147.97,-6.25 41.5,-16.92 48.21,-45.44 48.16,-100.66 -0.11,-145.55 12.61,-174.06 -129.26,-174.12 -40.16,-0.02 -111.39,-5.75 -146.35,5.23zm-1351.79 1199.13c-50.75,18.05 -50.25,54.07 -50.14,101.81 0.09,40.35 -8.65,112.85 12.55,140.74 30.23,39.77 60.38,33.58 116.99,33.83 126.58,0.57 197.82,21.29 197.09,-102.87 -0.81,-138.82 17.66,-179.87 -130.21,-179.88 -39.45,-0 -112.67,-5.59 -146.29,6.37zm897.6 -1199.09c-47.96,17.08 -50.57,42.8 -50.38,101.93 0.46,140.67 -19.17,173.66 130.24,173.54 144.07,-0.11 199.12,19.18 198.88,-106.66 -0.27,-138.42 15,-173.96 -132,-174.13 -35.13,-0.04 -118.97,-4.57 -146.74,5.31zm462.18 395.85c-45.59,12.31 -59.12,40.18 -58.82,92.96 0.2,34.23 -5.24,120.87 7.11,146.72 18.8,39.33 62.14,41.1 113.63,40.94 113.43,-0.32 207.57,24.51 205.67,-96.72 -0.54,-34.73 4.85,-117.86 -8.11,-144.37 -19.86,-40.63 -56.28,-43.5 -111.56,-43.23 -36.39,0.18 -118.57,-4.23 -147.92,3.7zm-1353.22 400.26c-43.46,11.89 -56.55,41.46 -56.9,93.86 -0.84,128.03 -20.04,187.89 120.18,187.56 121.32,-0.29 207.3,21.73 206.81,-96.61 -0.56,-134.81 24.36,-187.99 -120.82,-187.5 -31.41,0.11 -125.78,-3.76 -149.28,2.67zm2.49 -399.9c-47.38,14.89 -59.4,35.03 -59.25,92.55 0.34,135.95 -23.82,187.93 120.06,187.68 125.1,-0.23 207.43,24.59 206.77,-96.78 -0.7,-130.23 22.5,-188.03 -120.78,-187.49 -34.04,0.13 -120,-4.38 -146.79,4.04zm442.14 -397.25c-44.04,16.27 -52.19,45.63 -52.38,98.11 -0.14,38.86 -8.5,113.5 10.51,142.86 25.7,39.72 66.41,36.08 119.12,36.01 34.77,-0.05 121.75,3.87 148.92,-5.36 46.05,-15.65 52.26,-40.45 52.43,-96.94 0.47,-151.79 11.91,-178.78 -129.69,-178.9 -31.91,-0.03 -125.59,-4.39 -148.9,4.22zm450.93 798.71c-45.41,12.53 -55.16,44.99 -54.79,97.19 0.92,130.23 -24.54,183.05 125.34,182.67 129.2,-0.34 203.31,21.29 203.38,-101.43 0.08,-140.91 15.94,-182.83 -126.94,-182.66 -42.14,0.05 -110.08,-5.96 -146.99,4.23zm-451.01 400.47c-46.02,14.41 -52.37,45.17 -52.63,102.74 -0.65,144.02 -9.17,174.8 129.94,174.76 120.46,-0.04 203.43,23.15 201.52,-102.98 -2.3,-151.61 9.14,-179.96 -129.85,-179.83 -42.46,0.04 -112.39,-6.14 -148.97,5.32zm455.43 -802.39c-47.06,13.31 -59.47,36.44 -59.3,93.04 0.11,33.87 -5.63,121.31 7.15,146.61 19.55,38.68 61.06,41.1 113.52,41.01 130.22,-0.23 206.94,24.5 207.68,-96.75 0.84,-138.69 16.26,-187.98 -121.69,-187.42 -33.66,0.14 -120.7,-4.02 -147.35,3.52zm-449.73 401.1c-46.56,14.12 -57.91,41.02 -58.01,97.91 -0.24,131.31 -15.65,183.16 124.85,182.76 117.79,-0.33 206.66,21.93 206.43,-101.35 -0.24,-129.25 21.51,-183.44 -125.22,-182.73 -32.74,0.16 -123.27,-4.11 -148.05,3.4zm1.84 -400.18c-49.91,15.4 -58.72,36.77 -59.45,96.82 -1.73,143.06 -16.09,183.33 124.44,183 126.27,-0.3 205.3,23.98 206,-101.56 0.2,-36.1 4.47,-115.88 -10.69,-142.43 -21.64,-37.89 -62.03,-40.6 -114.1,-40.35 -39.03,0.18 -113.18,-5.68 -146.21,4.52zm438.02 801.82c-48.86,17 -49.55,48.48 -49.45,107.2 0.08,43.2 -10.44,107.36 13.9,139.9 24.72,33.05 69.83,30.41 121.11,30.31 125.96,-0.26 197.65,23.61 197.04,-108.07 -0.21,-44.47 8.25,-104.75 -13.06,-140.87 -22.51,-38.17 -66.94,-34.32 -121.89,-34.2 -37.61,0.09 -116.87,-4.98 -147.66,5.73zm-879.66 -2427.63c-58.23,9.46 -86.86,33.79 -114,65.84 -35.91,42.39 -35.67,76.55 -35.55,142.67 0.16,96.23 -7.28,653.1 7.52,700.58 39.02,125.26 159.63,113.16 242.64,113.12 53.75,-0.02 1362.95,5.48 1418.66,-0.86 57.52,-6.55 90.16,-35.22 113.01,-64.95 33.42,-43.51 31.53,-84.51 31.52,-146 -0.03,-100.32 8.21,-644.88 -8.85,-698.61 -38,-119.66 -151.66,-114.24 -240.69,-113.94 -56.78,0.2 -1359.96,-6.67 -1414.24,2.15z"/>
  </g>
  <polygon class="fil2" points="-0,0 13834.93,0 13834.93,3717.14 -0,3717.14 "/>
 </g>
</svg>
