<?xml version="1.0" encoding="UTF-8"?>
<!DOCTYPE svg PUBLIC "-//W3C//DTD SVG 1.1//EN" "http://www.w3.org/Graphics/SVG/1.1/DTD/svg11.dtd">
<!-- Creator: CorelDRAW -->
<svg xmlns="http://www.w3.org/2000/svg" xml:space="preserve" width="43.3493mm" height="40.728mm" version="1.1" style="shape-rendering:geometricPrecision; text-rendering:geometricPrecision; image-rendering:optimizeQuality; fill-rule:evenodd; clip-rule:evenodd"
viewBox="0 0 1562.47 1467.99"
 xmlns:xlink="http://www.w3.org/1999/xlink"
 xmlns:xodm="http://www.corel.com/coreldraw/odm/2003">
 <defs>
  <style type="text/css">
   <![CDATA[
    .fil1 {fill:white}
    .fil0 {fill:url(#id0)}
   ]]>
  </style>
  <linearGradient id="id0" gradientUnits="userSpaceOnUse" x1="128.96" y1="1140.04" x2="1433.52" y2="327.96">
   <stop offset="0" style="stop-opacity:1; stop-color:#410068"/>
   <stop offset="1" style="stop-opacity:1; stop-color:#970167"/>
  </linearGradient>
 </defs>
 <g id="Camada_x0020_1">
  <metadata id="CorelCorpID_0Corel-Layer"/>
  <rect class="fil0" x="0" y="-0" width="1562.47" height="1467.99" rx="272.52" ry="272.51"/>
  <g id="_2571667573856">
   <path class="fil1" d="M344.08 249.61l645.12 0c-66.76,67.11 -65.82,100.27 -209.44,91.75l-388.66 -1.47c-53.65,-0.4 -63.17,22.92 -60.49,76.23l0.94 523.9 255.75 -310.84c19.36,-24.2 36.89,-23.95 52.63,0.18l211.39 253.02 80.54 -91.76c35.2,-37.86 67.79,-35.41 98.24,0.36l180.2 221.27 -0.13 -329.52c-2.68,-70.11 30.22,-122.91 88.71,-163.26l0 624.93c0,58.93 -48.22,107.14 -107.14,107.14l-847.67 0c-58.93,0 -107.14,-48.21 -107.14,-107.14l0 -787.63c0,-58.93 48.22,-107.15 107.14,-107.15z"/>
   <circle class="fil1" cx="931.63" cy="579.85" r="84.46"/>
   <path class="fil1" d="M905.47 378.8l0 0.12c67.79,15.41 130.63,32.18 170.52,70.91 36.07,35.01 52.98,95.45 65.52,145.94 1.77,7.13 3.59,18.31 5.94,24.46 1.82,-3 10.25,-40.67 12.23,-47.97 4.17,-15.42 8.77,-31.03 14.23,-45.92 10.87,-29.67 23.53,-54.24 44.9,-75.69 22.15,-22.24 45.49,-33.64 75.45,-45.16 30.42,-11.7 62.32,-17.44 94.87,-26.48l-47.73 -12.05c-16.26,-4.38 -30.74,-8.78 -46.06,-14.29 -66.8,-24.05 -95.64,-55.18 -121.02,-120.02 -8.81,-22.51 -17.68,-57.58 -23.52,-82.59l-2.53 -10.27c-0.59,-1.32 -0.52,-1.12 -1.12,-1.87 -15.24,58.94 -28.27,127.26 -71.1,170 -37.71,37.62 -104.44,56.3 -170.59,70.89z"/>
  </g>
 </g>
</svg>
