<?xml version="1.0" encoding="UTF-8"?>
<!DOCTYPE svg PUBLIC "-//W3C//DTD SVG 1.1//EN" "http://www.w3.org/Graphics/SVG/1.1/DTD/svg11.dtd">
<!-- Creator: CorelDRAW -->
<svg xmlns="http://www.w3.org/2000/svg" xml:space="preserve" width="109.992mm" height="33.9468mm" version="1.1" style="shape-rendering:geometricPrecision; text-rendering:geometricPrecision; image-rendering:optimizeQuality; fill-rule:evenodd; clip-rule:evenodd"
viewBox="0 0 3882.82 1198.35"
 xmlns:xlink="http://www.w3.org/1999/xlink"
 xmlns:xodm="http://www.corel.com/coreldraw/odm/2003">
 <defs>
  <style type="text/css">
   <![CDATA[
    .fil3 {fill:none}
    .fil0 {fill:#1ED760}
    .fil1 {fill:white}
    .fil2 {fill:white;fill-rule:nonzero}
   ]]>
  </style>
 </defs>
 <g id="Camada_x0020_1">
  <metadata id="CorelCorpID_0Corel-Layer"/>
  <g id="_1300499668064">
   <circle class="fil0" cx="613.27" cy="599.18" r="529.52"/>
   <g id="_2225454519856">
    <path class="fil1" d="M399.11 751.08c-1.18,24.57 -9.5,61.65 -13.67,86.57 -4.68,28.04 -17.01,64.53 11.53,74.6 14.55,5.13 27.01,-4.11 37.28,-9.8l99.57 -51.47c5.79,-0.26 57.13,29.29 66.55,33.89 11.03,5.37 22.34,11.95 33.2,17.17 11.8,5.66 21.88,15 37.43,10.59 30.64,-8.65 16.86,-49.62 12.87,-73.53 -2.44,-14.65 -4.78,-28.59 -7.16,-43.13 -2.07,-12.6 -6.62,-32.23 -6.64,-44.72l79.01 -76.46c9.06,-9.06 33.76,-29.24 14.66,-50.88 -7.64,-8.65 -12.38,-10.01 -26.93,-12.27l-100.87 -15.68c-23.02,-3.73 -14.35,4.3 -37.17,-41.32 -8.73,-17.43 -17.1,-34.18 -25.68,-51.36 -8.41,-16.84 -14.85,-40.45 -37.83,-40.99 -24.76,-0.57 -29.97,20.79 -38.98,38.28l-38.26 78.06c-7.58,15.46 -3.76,14.18 -22.37,16.92 -23.08,3.39 -45.19,7.1 -68.05,10.57 -19,2.88 -50.17,4.7 -61.28,15.81 -6.02,5.99 -9.96,19.79 -5.27,30.82 4.8,11.31 45.71,48.14 57.72,60.17 6.7,6.71 12.93,13.04 19.9,19.42 5.39,4.92 13.3,13.89 20.38,18.71l0.04 0.01z"/>
    <path class="fil1" d="M740.86 414.03c4.23,-3.47 10.63,-4.54 16.42,-6.2 10.92,-3.12 48.33,-12.4 51.57,-18.56 1.83,-18.48 -6.35,-17.36 -21.12,-21.9 -54.34,-16.64 -44.81,-6.53 -52.37,-32.56 -3.12,-10.74 -10.68,-43.46 -16.88,-47.65 -25.47,-17.28 -27.15,56.89 -37.7,66.22 -4.91,4.33 -58.83,14.98 -64.67,21.81 -16.62,19.37 27.56,26.07 49.42,32.59 23.48,6.99 15.11,1.81 31.06,55.43 3.03,10.15 9.21,26.34 22.6,15.14 7.51,-6.27 15.38,-51.45 21.66,-64.3l0.02 -0.04z"/>
    <path class="fil1" d="M771.13 565.14c9.85,7.21 12.12,6.35 26.91,10.44 9.41,2.6 25.71,5.35 28.52,10.79 8.84,17.19 6.68,57.07 25.68,51.67 7.84,-2.23 13.17,-29.76 16.33,-41.87 1.64,-6.33 1.81,-11.07 6.84,-13.65 4.43,-2.27 24.15,-6.84 30.58,-8.67 9.04,-2.55 25.7,-4.47 20.55,-17.91 -4.54,-11.84 -49.4,-11.46 -55.08,-22.36 -6.25,-11.95 -7.86,-56.54 -25.47,-51.33 -8.49,2.51 -13.21,28.98 -16.64,41.62 -0.63,2.32 -1.33,5.54 -1.96,7.49 -2.42,7.49 0.68,3.69 -4.74,6.35 -24,11.71 -54.22,3.76 -51.5,27.45l-0.02 -0.01z"/>
   </g>
   <path class="fil2" d="M1510.98 280.94c0,-19.52 -9.33,-28.85 -28.85,-28.85l-112.86 0c-19.52,0 -28.85,9.33 -28.85,28.85l0 543.1c0,19.52 9.33,28.85 28.85,28.85l288.52 0c19.52,0 28.85,-9.33 28.85,-28.85l0 -95.89c0,-19.52 -9.33,-28.85 -28.85,-28.85l-146.81 0 0 -418.35zm232.51 431.93c0,105.22 44.13,148.5 132.38,148.5 53.46,0 87.41,-24.61 105.22,-50.91l5.94 21.21c3.39,13.58 11.03,21.22 29.7,21.22l94.19 0c18.67,0 27.16,-8.49 27.16,-26.31l0 -413.26c0,-17.82 -8.49,-26.31 -27.16,-26.31l-106.92 0c-17.82,0 -26.31,8.48 -26.31,26.31l0 245.24c0,40.73 -10.18,63.64 -41.58,63.64 -27.16,0 -33.1,-18.67 -33.1,-54.31l0 -254.58c0,-17.82 -8.48,-26.31 -26.31,-26.31l-106.92 0c-17.82,0 -26.31,8.48 -26.31,26.31l0 299.55zm856.22 -176.5c0,-100.13 -37.34,-157.84 -128.14,-157.84 -54.31,0 -93.34,25.46 -112.01,50.91l-5.94 -21.22c-3.4,-13.58 -10.18,-21.21 -29.7,-21.21l-94.19 0c-17.82,0 -26.31,8.48 -26.31,26.31l0 413.26c0,17.82 8.49,26.31 26.31,26.31l106.92 0c17.82,0 26.31,-8.49 26.31,-26.31l0 -240.15c0,-43.28 11.03,-67.04 43.28,-67.04 26.31,0 33.09,17.82 33.09,55.16l0 252.03c0,17.82 8.49,26.31 26.31,26.31l106.92 0c18.67,0 27.16,-8.49 27.16,-26.31l0 -290.22zm437.87 -6.79c0,-103.53 -57.7,-150.2 -187.54,-150.2 -55.16,0 -114.56,11.03 -150.2,24.61 -15.27,5.09 -22.06,14.43 -19.52,31.4l10.18 70.43c2.55,17.82 15.27,23.76 33.09,18.67 23.76,-7.64 60.25,-18.67 100.98,-18.67 40.73,0 58.55,10.18 58.55,38.18l0 20.37c-145.96,2.55 -233.36,21.22 -233.36,152.75 0,97.59 55.16,140.86 126.44,140.86 61.95,0 96.74,-22.06 115.41,-44.97l5.09 18.67c3.39,13.58 11.03,21.22 29.7,21.22l84.01 0c18.67,0 27.15,-8.49 27.15,-26.31l0 -297zm-154.44 160.38c0,36.49 -8.49,61.1 -44.98,61.1 -25.46,0 -36.49,-17.82 -36.49,-45.82 0,-45.82 19.52,-55.16 81.47,-56.86l0 41.58zm397.14 -275.79l0 -12.73c0,-23.76 5.94,-32.25 31.4,-32.25 4.24,0 13.58,0.85 19.52,0.85 16.13,0 24.61,-9.33 24.61,-27.16l0 -63.64c0,-16.12 -7.64,-22.06 -22.91,-26.31 -16.12,-4.24 -43.28,-6.79 -68.73,-6.79 -98.44,0 -140.02,32.25 -140.02,136.63l0 31.4 -22.06 0c-17.82,0 -25.46,7.64 -25.46,25.46l0 78.92c0,17.82 7.64,25.46 25.46,25.46l22.06 0 0 284.28c0,16.97 8.49,24.61 27.15,24.61l101.83 0c18.67,0 27.15,-7.64 27.15,-24.61l0 -284.28 49.22 0c17.82,0 26.31,-8.49 26.31,-26.31l0 -77.22c0,-17.82 -8.48,-26.31 -26.31,-26.31l-49.22 0zm517.64 3.39c4.24,-18.67 -3.4,-30.55 -21.22,-30.55l-111.17 0c-18.67,0 -28,8.48 -30.55,26.31l-22.06 175.66 -11.88 97.59 -3.4 0 -17.82 -97.59 -34.79 -175.66c-3.39,-17.82 -13.58,-26.31 -32.24,-26.31l-112.86 0c-17.82,0 -24.61,11.88 -18.67,30.55l117.1 369.14c6.79,22.06 1.7,36.49 -26.31,36.49 -16.97,0 -29.7,-2.55 -42.43,-2.55 -16.13,0 -24.61,6.79 -24.61,24.61l0 72.13c0,16.13 8.49,22.91 23.76,27.16 16.13,4.24 58.55,7.64 94.19,7.64 119.65,0 153.59,-36.49 178.21,-138.32l96.74 -396.29z"/>
  </g>
  <rect class="fil3" y="-0" width="3882.82" height="1198.35"/>
 </g>
</svg>
